<svg xmlns="http://www.w3.org/2000/svg" width="225" height="225" viewBox="0 0 225 225" version="1.1"><path d="M 34.396 87.429 C 30.961 88.925, 28.533 91.967, 24.702 99.571 C 21.986 104.964, 18.996 115.235, 19.006 119.144 C 19.035 131.456, 30.634 141.056, 41.895 138.088 C 47.783 136.537, 51.635 133.636, 54.023 128.956 C 59.558 118.106, 52.148 91.467, 42.471 87.424 C 38.391 85.719, 38.326 85.719, 34.396 87.429 M 70.501 89.376 C 69.290 90.261, 68.420 92.489, 68.060 95.626 C 67.590 99.714, 67.137 100.552, 65.250 100.820 C 61.955 101.288, 62.177 105, 65.500 105 L 68 105 68 119.500 L 68 134 70.500 134 L 73 134 73 119.500 L 73 105 76 105 C 78.333 105, 79 104.556, 79 103 C 79 101.444, 78.333 101, 76 101 C 73.494 101, 73 100.602, 73 98.582 C 73 94.239, 74.023 93, 77.607 93 C 79.473 93, 81 92.587, 81 92.082 C 81 91.577, 81.273 90.452, 81.607 89.582 C 82.110 88.272, 81.370 88, 77.298 88 C 74.594 88, 71.536 88.619, 70.501 89.376 M 176 95.917 L 176 103.834 172.221 101.764 C 167.576 99.219, 162.483 99.881, 158.059 103.604 C 150.461 109.998, 151.705 127.441, 160.114 132.408 C 164.025 134.718, 170.112 134.812, 173.467 132.613 C 175.676 131.166, 176 131.149, 176 132.477 C 176 133.435, 176.928 134, 178.500 134 L 181 134 181 111 L 181 88 178.500 88 C 176.044 88, 176 88.139, 176 95.917 M 33.535 92.374 C 28.561 97.348, 22.999 111.636, 23.002 119.432 C 23.006 131.293, 34.684 138.584, 45.016 133.176 C 49.110 131.033, 53 124.215, 53 119.182 C 53 111.177, 47.159 95.391, 42.850 91.750 C 39.976 89.322, 36.344 89.565, 33.535 92.374 M 91.450 101.407 C 81.627 105.685, 78.771 121.426, 86.326 129.650 C 92.904 136.812, 106.452 135.828, 110.557 127.890 C 112.337 124.448, 112.303 124.320, 109.500 123.885 C 108.286 123.696, 106.253 124.836, 104.327 126.787 C 99.355 131.822, 92.612 131.018, 89.510 125.020 C 86.489 119.178, 86.800 119, 100 119 L 112 119 112 114.648 C 112 104.209, 101.117 97.196, 91.450 101.407 M 126.020 101.752 C 120.288 104.631, 117.999 109.098, 118.004 117.398 C 118.010 128.696, 122.835 134.160, 132.929 134.300 C 138.774 134.381, 142.818 132.403, 145.768 128.020 L 148.111 124.540 145.305 123.779 C 143.174 123.201, 142.211 123.437, 141.296 124.759 C 138.649 128.587, 136.503 130, 133.341 130 C 129.384 130, 124.500 125.873, 123.577 121.750 L 122.962 119 135.617 119 L 148.272 119 147.644 114.418 C 146.779 108.112, 144.279 104.314, 139.456 101.979 C 134.417 99.539, 130.553 99.474, 126.020 101.752 M 197.452 102.646 C 195.100 105.184, 195 105.205, 195 103.146 C 195 101.524, 194.390 101, 192.500 101 L 190 101 190 117.500 L 190 134 193 134 L 196 134 196.015 122.750 C 196.033 108.870, 196.956 106.528, 202.445 106.433 C 205.473 106.381, 206.496 105.892, 207.122 104.198 C 207.727 102.562, 207.459 101.781, 206.028 101.015 C 202.867 99.323, 200.032 99.862, 197.452 102.646 M 90.589 108.077 C 86.117 113.392, 86.824 114, 97.475 114 L 106.950 114 105.906 111.252 C 104.110 106.530, 102.037 105, 97.434 105 C 93.909 105, 92.733 105.529, 90.589 108.077 M 126.455 107.455 C 125.105 108.805, 124 110.830, 124 111.955 C 124 113.864, 124.600 114, 133 114 C 138.617 114, 142 113.605, 142 112.950 C 142 110.964, 139.072 106.241, 137.455 105.621 C 133.758 104.203, 128.896 105.013, 126.455 107.455 M 161.980 106.815 C 157.406 110.519, 157.688 123.614, 162.430 127.693 C 166.246 130.976, 170.236 130.696, 173.411 126.923 C 175.601 124.321, 176 122.869, 176 117.500 C 176 112.131, 175.601 110.679, 173.411 108.077 C 170.365 104.456, 165.550 103.925, 161.980 106.815 M 35.099 110.601 C 32.504 113.901, 31.489 119.177, 32.931 121.872 C 37.141 129.738, 45.508 123.746, 42.919 114.718 C 42.044 111.668, 39.314 108, 37.918 108 C 37.493 108, 36.224 109.171, 35.099 110.601" stroke="none" fill="#66be85" fill-rule="evenodd"/><path d="M -0 112.504 L -0 225.009 112.750 224.754 L 225.500 224.500 225.754 112.250 L 226.009 0 113.004 0 L 0 0 -0 112.504 M 0.483 113 C 0.483 174.875, 0.603 200.188, 0.750 169.250 C 0.897 138.313, 0.897 87.688, 0.750 56.750 C 0.603 25.813, 0.483 51.125, 0.483 113 M 34.396 87.429 C 30.961 88.925, 28.533 91.967, 24.702 99.571 C 21.986 104.964, 18.996 115.235, 19.006 119.144 C 19.035 131.456, 30.634 141.056, 41.895 138.088 C 47.783 136.537, 51.635 133.636, 54.023 128.956 C 59.558 118.106, 52.148 91.467, 42.471 87.424 C 38.391 85.719, 38.326 85.719, 34.396 87.429 M 70.501 89.376 C 69.290 90.261, 68.420 92.489, 68.060 95.626 C 67.590 99.714, 67.137 100.552, 65.250 100.820 C 61.955 101.288, 62.177 105, 65.500 105 L 68 105 68 119.500 L 68 134 70.500 134 L 73 134 73 119.500 L 73 105 76 105 C 78.333 105, 79 104.556, 79 103 C 79 101.444, 78.333 101, 76 101 C 73.494 101, 73 100.602, 73 98.582 C 73 94.239, 74.023 93, 77.607 93 C 79.473 93, 81 92.587, 81 92.082 C 81 91.577, 81.273 90.452, 81.607 89.582 C 82.110 88.272, 81.370 88, 77.298 88 C 74.594 88, 71.536 88.619, 70.501 89.376 M 176 95.917 L 176 103.834 172.221 101.764 C 167.576 99.219, 162.483 99.881, 158.059 103.604 C 150.461 109.998, 151.705 127.441, 160.114 132.408 C 164.025 134.718, 170.112 134.812, 173.467 132.613 C 175.676 131.166, 176 131.149, 176 132.477 C 176 133.435, 176.928 134, 178.500 134 L 181 134 181 111 L 181 88 178.500 88 C 176.044 88, 176 88.139, 176 95.917 M 33.535 92.374 C 28.561 97.348, 22.999 111.636, 23.002 119.432 C 23.006 131.293, 34.684 138.584, 45.016 133.176 C 49.110 131.033, 53 124.215, 53 119.182 C 53 111.177, 47.159 95.391, 42.850 91.750 C 39.976 89.322, 36.344 89.565, 33.535 92.374 M 91.450 101.407 C 81.627 105.685, 78.771 121.426, 86.326 129.650 C 92.904 136.812, 106.452 135.828, 110.557 127.890 C 112.337 124.448, 112.303 124.320, 109.500 123.885 C 108.286 123.696, 106.253 124.836, 104.327 126.787 C 99.355 131.822, 92.612 131.018, 89.510 125.020 C 86.489 119.178, 86.800 119, 100 119 L 112 119 112 114.648 C 112 104.209, 101.117 97.196, 91.450 101.407 M 126.020 101.752 C 120.288 104.631, 117.999 109.098, 118.004 117.398 C 118.010 128.696, 122.835 134.160, 132.929 134.300 C 138.774 134.381, 142.818 132.403, 145.768 128.020 L 148.111 124.540 145.305 123.779 C 143.174 123.201, 142.211 123.437, 141.296 124.759 C 138.649 128.587, 136.503 130, 133.341 130 C 129.384 130, 124.500 125.873, 123.577 121.750 L 122.962 119 135.617 119 L 148.272 119 147.644 114.418 C 146.779 108.112, 144.279 104.314, 139.456 101.979 C 134.417 99.539, 130.553 99.474, 126.020 101.752 M 197.452 102.646 C 195.100 105.184, 195 105.205, 195 103.146 C 195 101.524, 194.390 101, 192.500 101 L 190 101 190 117.500 L 190 134 193 134 L 196 134 196.015 122.750 C 196.033 108.870, 196.956 106.528, 202.445 106.433 C 205.473 106.381, 206.496 105.892, 207.122 104.198 C 207.727 102.562, 207.459 101.781, 206.028 101.015 C 202.867 99.323, 200.032 99.862, 197.452 102.646 M 90.589 108.077 C 86.117 113.392, 86.824 114, 97.475 114 L 106.950 114 105.906 111.252 C 104.110 106.530, 102.037 105, 97.434 105 C 93.909 105, 92.733 105.529, 90.589 108.077 M 126.455 107.455 C 125.105 108.805, 124 110.830, 124 111.955 C 124 113.864, 124.600 114, 133 114 C 138.617 114, 142 113.605, 142 112.950 C 142 110.964, 139.072 106.241, 137.455 105.621 C 133.758 104.203, 128.896 105.013, 126.455 107.455 M 161.980 106.815 C 157.406 110.519, 157.688 123.614, 162.430 127.693 C 166.246 130.976, 170.236 130.696, 173.411 126.923 C 175.601 124.321, 176 122.869, 176 117.500 C 176 112.131, 175.601 110.679, 173.411 108.077 C 170.365 104.456, 165.550 103.925, 161.980 106.815 M 35.099 110.601 C 32.504 113.901, 31.489 119.177, 32.931 121.872 C 37.141 129.738, 45.508 123.746, 42.919 114.718 C 42.044 111.668, 39.314 108, 37.918 108 C 37.493 108, 36.224 109.171, 35.099 110.601" stroke="none" fill="#fbfbfb" fill-rule="evenodd"/></svg>